<svg width="486" height="1080" viewBox="0 0 486 1080" fill="none" xmlns="http://www.w3.org/2000/svg">
<g clip-path="url(#clip0_75_560)">
<rect width="485.234" height="1080" rx="40" fill="white"/>
<g opacity="0.3" filter="url(#filter0_f_75_560)">
<ellipse cx="184" cy="988.91" rx="448.88" ry="548.994" transform="rotate(-0.117017 184 988.91)" fill="#C5D9FD"/>
</g>
<g filter="url(#filter1_f_75_560)">
<ellipse cx="167.138" cy="235.453" rx="284.5" ry="144.5" transform="rotate(-31.3615 167.138 235.453)" fill="#A99BFF"/>
</g>
<g filter="url(#filter2_f_75_560)">
<ellipse cx="241.505" cy="16.4895" rx="284.5" ry="144.5" transform="rotate(0.806352 241.505 16.4895)" fill="#CEDCFF"/>
</g>
<g filter="url(#filter3_f_75_560)">
<ellipse cx="462.217" cy="371.324" rx="207.717" ry="244.9" transform="rotate(-0.117017 462.217 371.324)" fill="#C5D9FD"/>
</g>
<g filter="url(#filter4_f_75_560)">
<ellipse cx="244.916" cy="506.921" rx="207.717" ry="97.4964" transform="rotate(-0.117017 244.916 506.921)" fill="#005BFF"/>
</g>
<path d="M259.384 498C241.359 498 242.003 516.28 242.003 516.28V530.259" stroke="white" stroke-width="12" stroke-linecap="round"/>
<path d="M259.384 562.519C241.359 562.519 242.003 544.239 242.003 544.239V530.26" stroke="white" stroke-width="12" stroke-linecap="round"/>
<path d="M259.384 562.519C277.408 562.519 276.765 544.239 276.765 544.239V530.26" stroke="white" stroke-width="12" stroke-linecap="round"/>
<path d="M259.384 498C277.408 498 276.765 516.28 276.765 516.28V531.692" stroke="white" stroke-width="12" stroke-linecap="round"/>
<path d="M166.563 498C184.337 498 183.702 515.727 183.702 515.727V563" stroke="white" stroke-width="12" stroke-linecap="round"/>
<path d="M166.565 498C148.792 498 149.426 515.727 149.426 515.727V563" stroke="white" stroke-width="12" stroke-linecap="round"/>
<path d="M200.841 498C218.614 498 217.98 515.727 217.98 515.727V563" stroke="white" stroke-width="12" stroke-linecap="round"/>
<path d="M200.844 498C183.07 498 183.705 515.727 183.705 515.727V563" stroke="white" stroke-width="12" stroke-linecap="round"/>
<path d="M132 498C150.025 498 149.381 515.727 149.381 515.727V529.283" stroke="white" stroke-width="12" stroke-linecap="round"/>
<path d="M318.384 498C300.359 498 301.003 516.28 301.003 516.28V530.259" stroke="white" stroke-width="12" stroke-linecap="round"/>
<path d="M318.384 562.519C300.359 562.519 301.003 544.239 301.003 544.239V530.26" stroke="white" stroke-width="12" stroke-linecap="round"/>
<path d="M318.384 562.519C335.625 562.519 335.009 544.239 335.009 544.239V530.26" stroke="white" stroke-width="12" stroke-linecap="round"/>
<path d="M352.397 562.519C334.372 562.519 335.016 544.239 335.016 544.239V530.26" stroke="white" stroke-width="12" stroke-linecap="round"/>
<path d="M318.384 498C335.625 498 335.009 516.28 335.009 516.28V531.692" stroke="white" stroke-width="12" stroke-linecap="round"/>
<path d="M129.648 451.07H125.816V449.219H129.648V451.07ZM126.391 461.969H124.176V440.98H126.391V461.969ZM113.055 456.051H110.84V443.031H113.055V456.051ZM112.562 454.855C114.211 454.855 115.84 454.781 117.449 454.633C119.059 454.484 120.691 454.238 122.348 453.895L122.617 455.77C120.938 456.113 119.273 456.355 117.625 456.496C115.984 456.637 114.297 456.707 112.562 456.707H110.84V454.855H112.562ZM143.195 450.848H139.328V449.031H143.195V450.848ZM148.844 461.98H146.699V440.98H148.844V461.98ZM144.566 460.949H142.457V441.379H144.566V460.949ZM135.543 442.656C136.457 442.656 137.258 442.957 137.945 443.559C138.633 444.152 139.164 445.008 139.539 446.125C139.922 447.242 140.113 448.555 140.113 450.062C140.113 451.555 139.922 452.859 139.539 453.977C139.164 455.094 138.633 455.957 137.945 456.566C137.258 457.168 136.457 457.473 135.543 457.48C134.637 457.473 133.84 457.168 133.152 456.566C132.465 455.957 131.934 455.094 131.559 453.977C131.191 452.859 131.008 451.555 131.008 450.062C131.008 448.555 131.191 447.242 131.559 446.125C131.934 445.008 132.465 444.152 133.152 443.559C133.84 442.957 134.637 442.656 135.543 442.656ZM135.543 444.766C135.027 444.758 134.586 444.965 134.219 445.387C133.852 445.809 133.57 446.418 133.375 447.215C133.18 448.004 133.082 448.953 133.082 450.062C133.082 451.156 133.18 452.102 133.375 452.898C133.57 453.695 133.855 454.305 134.23 454.727C134.605 455.141 135.043 455.348 135.543 455.348C136.051 455.348 136.492 455.141 136.867 454.727C137.242 454.305 137.531 453.695 137.734 452.898C137.938 452.102 138.039 451.156 138.039 450.062C138.039 448.953 137.938 448.004 137.734 447.215C137.531 446.418 137.242 445.809 136.867 445.387C136.492 444.965 136.051 444.758 135.543 444.766ZM169.562 461.98H167.453V440.98H169.562V461.98ZM163.574 451.223H158.453V449.43H163.574V451.223ZM165.133 460.973H163.023V441.52H165.133V460.973ZM160.621 443.605C160.621 445.551 160.355 447.367 159.824 449.055C159.301 450.734 158.453 452.289 157.281 453.719C156.109 455.148 154.59 456.41 152.723 457.504L151.445 455.91C153.07 454.949 154.402 453.867 155.441 452.664C156.48 451.453 157.246 450.133 157.738 448.703C158.23 447.266 158.477 445.707 158.477 444.027V443.605H160.621ZM159.262 445.422H152.43V443.605H159.262V445.422ZM195.566 451.855H193.328V440.98H195.566V451.855ZM195.566 458.02H183.895V461.02H181.703V456.379H193.363V454.562H181.645V452.805H195.566V458.02ZM196.305 461.781H181.703V460H196.305V461.781ZM190.434 444.121H179.055V442.375H190.434V444.121ZM178.469 449.418C180.781 449.41 183.047 449.363 185.266 449.277C187.492 449.184 189.535 449.027 191.395 448.809L191.5 450.426C189.594 450.715 187.535 450.918 185.324 451.035C183.113 451.152 180.918 451.211 178.738 451.211L178.469 449.418ZM183.156 450.262H181.012V443.172H183.156V450.262ZM188.43 450.262H186.297V443.172H188.43V450.262ZM205.656 457.926H203.465V451.773H205.656V457.926ZM213.484 457.926H211.246V451.773H213.484V457.926ZM218.078 459.367H198.859V457.527H218.078V459.367ZM208.434 442.199C209.934 442.199 211.27 442.43 212.441 442.891C213.613 443.344 214.527 443.988 215.184 444.824C215.848 445.652 216.18 446.605 216.18 447.684C216.18 448.77 215.848 449.727 215.184 450.555C214.527 451.375 213.613 452.016 212.441 452.477C211.27 452.93 209.934 453.156 208.434 453.156C206.941 453.156 205.605 452.93 204.426 452.477C203.254 452.016 202.336 451.375 201.672 450.555C201.008 449.727 200.676 448.77 200.676 447.684C200.676 446.605 201.008 445.652 201.672 444.824C202.336 443.988 203.254 443.344 204.426 442.891C205.605 442.43 206.941 442.199 208.434 442.199ZM208.434 444.004C207.34 443.996 206.371 444.145 205.527 444.449C204.691 444.746 204.035 445.176 203.559 445.738C203.09 446.293 202.855 446.941 202.855 447.684C202.855 448.426 203.09 449.078 203.559 449.641C204.035 450.203 204.695 450.641 205.539 450.953C206.383 451.266 207.348 451.422 208.434 451.422C209.512 451.422 210.473 451.266 211.316 450.953C212.16 450.641 212.82 450.203 213.297 449.641C213.773 449.078 214.012 448.426 214.012 447.684C214.012 446.941 213.773 446.293 213.297 445.738C212.828 445.176 212.172 444.746 211.328 444.449C210.484 444.145 209.52 443.996 208.434 444.004ZM236.102 456.719H233.887V441.004H236.102V456.719ZM239.16 449.605H235.422V447.766H239.16V449.605ZM232.129 445.234H219.625V443.453H232.129V445.234ZM225.883 446.254C226.883 446.254 227.766 446.418 228.531 446.746C229.305 447.074 229.906 447.539 230.336 448.141C230.766 448.742 230.98 449.438 230.98 450.227C230.98 451.008 230.766 451.695 230.336 452.289C229.906 452.875 229.305 453.332 228.531 453.66C227.766 453.988 226.883 454.152 225.883 454.152C224.883 454.152 223.992 453.988 223.211 453.66C222.438 453.332 221.836 452.875 221.406 452.289C220.984 451.695 220.773 451.008 220.773 450.227C220.773 449.438 220.984 448.742 221.406 448.141C221.836 447.539 222.438 447.074 223.211 446.746C223.992 446.418 224.883 446.254 225.883 446.254ZM225.883 447.988C225.297 447.988 224.777 448.078 224.324 448.258C223.871 448.43 223.523 448.688 223.281 449.031C223.039 449.375 222.918 449.773 222.918 450.227C222.918 450.68 223.039 451.07 223.281 451.398C223.523 451.727 223.871 451.98 224.324 452.16C224.777 452.332 225.297 452.418 225.883 452.418C226.469 452.418 226.988 452.332 227.441 452.16C227.902 451.98 228.258 451.727 228.508 451.398C228.758 451.07 228.883 450.68 228.883 450.227C228.883 449.773 228.758 449.375 228.508 449.031C228.258 448.688 227.902 448.43 227.441 448.258C226.988 448.078 226.469 447.988 225.883 447.988ZM226.996 444.355H224.781V440.992H226.996V444.355ZM236.992 461.57H222.801V459.73H236.992V461.57ZM225.004 460.492H222.801V455.488H225.004V460.492ZM263.711 456.473H261.484V441.004H263.711V456.473ZM261.871 449.195H257.137V447.344H261.871V449.195ZM257.266 442.586C257.266 444.383 256.867 446.039 256.07 447.555C255.281 449.062 254.152 450.375 252.684 451.492C251.223 452.602 249.48 453.484 247.457 454.141L246.508 452.359C248.219 451.805 249.699 451.094 250.949 450.227C252.207 449.352 253.176 448.344 253.855 447.203C254.543 446.055 254.887 444.832 254.887 443.535V442.586H257.266ZM256.328 444.438H247.586V442.586H256.328V444.438ZM264.25 461.57H250.176V459.73H264.25V461.57ZM252.438 460.691H250.176V454.891H252.438V460.691ZM283.445 453.461H281.23V440.98H283.445V453.461ZM286.504 448.117H282.824V446.289H286.504V448.117ZM277.691 442.48C277.691 444.262 277.297 445.887 276.508 447.355C275.727 448.824 274.598 450.09 273.121 451.152C271.652 452.207 269.891 453.031 267.836 453.625L266.91 451.82C268.668 451.32 270.176 450.66 271.434 449.84C272.699 449.02 273.664 448.074 274.328 447.004C274.992 445.934 275.324 444.781 275.324 443.547V442.48H277.691ZM276.625 444.297H267.859V442.48H276.625V444.297ZM276.73 453.695C278.137 453.695 279.363 453.863 280.41 454.199C281.465 454.527 282.273 455 282.836 455.617C283.398 456.234 283.68 456.969 283.68 457.82C283.68 458.664 283.398 459.398 282.836 460.023C282.273 460.648 281.465 461.125 280.41 461.453C279.363 461.789 278.137 461.957 276.73 461.957C275.34 461.957 274.117 461.789 273.062 461.453C272.016 461.125 271.207 460.648 270.637 460.023C270.066 459.398 269.781 458.664 269.781 457.82C269.781 456.969 270.066 456.234 270.637 455.617C271.207 455 272.016 454.527 273.062 454.199C274.117 453.863 275.34 453.695 276.73 453.695ZM276.73 455.453C275.77 455.445 274.93 455.535 274.211 455.723C273.492 455.91 272.941 456.184 272.559 456.543C272.176 456.902 271.984 457.328 271.984 457.82C271.984 458.305 272.176 458.727 272.559 459.086C272.941 459.438 273.492 459.711 274.211 459.906C274.93 460.102 275.77 460.199 276.73 460.199C277.707 460.199 278.551 460.102 279.262 459.906C279.98 459.711 280.535 459.438 280.926 459.086C281.316 458.727 281.512 458.305 281.512 457.82C281.512 457.328 281.316 456.902 280.926 456.543C280.535 456.184 279.98 455.91 279.262 455.723C278.551 455.535 277.707 455.445 276.73 455.453ZM298.328 452.641H288.496V442.832H298.328V452.641ZM290.688 450.871H296.16V444.637H290.688V450.871ZM304.188 456.367H301.973V440.992H304.188V456.367ZM307.246 449.125H303.508V447.273H307.246V449.125ZM305.078 461.57H290.887V459.73H305.078V461.57ZM293.09 460.551H290.887V454.879H293.09V460.551ZM318.004 441.332C319.582 441.332 320.93 441.473 322.047 441.754C323.164 442.027 324.016 442.434 324.602 442.973C325.195 443.512 325.492 444.164 325.492 444.93C325.492 445.711 325.195 446.375 324.602 446.922C324.016 447.461 323.164 447.871 322.047 448.152C320.93 448.434 319.582 448.582 318.004 448.598C316.426 448.582 315.074 448.434 313.949 448.152C312.832 447.871 311.973 447.461 311.371 446.922C310.777 446.375 310.48 445.711 310.48 444.93C310.48 444.164 310.777 443.512 311.371 442.973C311.973 442.434 312.832 442.027 313.949 441.754C315.074 441.473 316.426 441.332 318.004 441.332ZM318.004 442.984C316.895 442.984 315.949 443.059 315.168 443.207C314.395 443.355 313.809 443.578 313.41 443.875C313.012 444.172 312.812 444.523 312.812 444.93C312.812 445.375 313.008 445.746 313.398 446.043C313.789 446.332 314.371 446.551 315.145 446.699C315.918 446.848 316.871 446.922 318.004 446.922C319.137 446.922 320.09 446.848 320.863 446.699C321.637 446.551 322.219 446.328 322.609 446.031C323.008 445.727 323.207 445.359 323.207 444.93C323.207 444.523 323.004 444.176 322.598 443.887C322.199 443.598 321.609 443.375 320.828 443.219C320.055 443.062 319.113 442.984 318.004 442.984ZM327.578 451.656H308.43V449.875H327.578V451.656ZM325.152 458.195H312.941V460.527H310.75V456.59H322.973V454.938H310.715V453.273H325.152V458.195ZM325.762 461.781H310.75V460.059H325.762V461.781ZM354.25 459.367H335.031V457.527H354.25V459.367ZM345.684 458.02H343.504V452.289H345.684V458.02ZM351.953 452.676H337.223V442.68H351.953V452.676ZM339.414 450.918H349.785V444.461H339.414V450.918ZM361.41 442.562C362.457 442.562 363.383 442.867 364.188 443.477C365 444.086 365.637 444.945 366.098 446.055C366.566 447.164 366.801 448.457 366.801 449.934C366.801 451.418 366.566 452.715 366.098 453.824C365.637 454.934 365 455.793 364.188 456.402C363.375 457.004 362.449 457.305 361.41 457.305C360.371 457.305 359.441 457.004 358.621 456.402C357.809 455.793 357.172 454.934 356.711 453.824C356.258 452.715 356.031 451.418 356.031 449.934C356.031 448.457 356.258 447.164 356.711 446.055C357.172 444.945 357.809 444.086 358.621 443.477C359.441 442.867 360.371 442.562 361.41 442.562ZM361.41 444.555C360.77 444.555 360.203 444.773 359.711 445.211C359.219 445.648 358.836 446.273 358.562 447.086C358.289 447.891 358.152 448.84 358.152 449.934C358.152 451.02 358.289 451.969 358.562 452.781C358.836 453.594 359.223 454.219 359.723 454.656C360.223 455.086 360.785 455.301 361.41 455.301C362.051 455.301 362.617 455.086 363.109 454.656C363.602 454.219 363.98 453.594 364.246 452.781C364.52 451.969 364.656 451.02 364.656 449.934C364.656 448.84 364.52 447.891 364.246 447.086C363.98 446.273 363.602 445.648 363.109 445.211C362.617 444.773 362.051 444.555 361.41 444.555ZM372.133 461.98H369.918V440.98H372.133V461.98ZM375.52 451.105H371.629V449.207H375.52V451.105Z" fill="white"/>
<path d="M21.2893 27.2966H21.4422C22.3006 27.2966 22.998 27.1759 23.5345 26.9345C24.071 26.6931 24.4841 26.3685 24.7738 25.9608C25.0635 25.5531 25.262 25.0944 25.3693 24.5847C25.4766 24.0697 25.5302 23.5413 25.5302 22.9995V21.2049C25.5302 20.6738 25.4685 20.2017 25.3451 19.7886C25.2271 19.3755 25.0608 19.0295 24.8462 18.7506C24.637 18.4716 24.3982 18.2597 24.13 18.1148C23.8618 17.97 23.5774 17.8976 23.277 17.8976C22.9336 17.8976 22.6252 17.9673 22.3516 18.1068C22.0833 18.2409 21.8553 18.4313 21.6676 18.6781C21.4852 18.9249 21.3457 19.2146 21.2491 19.5472C21.1525 19.8798 21.1043 20.242 21.1043 20.6336C21.1043 20.9823 21.1472 21.3203 21.233 21.6475C21.3189 21.9748 21.4503 22.2698 21.6273 22.5327C21.8044 22.7956 22.0243 23.0048 22.2872 23.1604C22.5554 23.3106 22.8693 23.3857 23.2287 23.3857C23.5613 23.3857 23.8725 23.3213 24.1622 23.1926C24.4572 23.0585 24.7174 22.8787 24.9428 22.6534C25.1734 22.4227 25.3558 22.1625 25.49 21.8728C25.6294 21.5832 25.7099 21.28 25.7314 20.9635H26.4395C26.4395 21.4088 26.351 21.8487 26.174 22.2833C26.0023 22.7124 25.7609 23.1041 25.4497 23.4581C25.1386 23.8122 24.7738 24.0965 24.3553 24.3111C23.9369 24.5204 23.4809 24.625 22.9873 24.625C22.4079 24.625 21.9063 24.5123 21.4825 24.287C21.0587 24.0617 20.7099 23.7613 20.4363 23.3857C20.1681 23.0102 19.9669 22.5917 19.8328 22.1304C19.7041 21.6636 19.6397 21.1915 19.6397 20.7141C19.6397 20.1561 19.7175 19.6331 19.873 19.1449C20.0286 18.6567 20.2593 18.2275 20.5651 17.8573C20.8709 17.4818 21.2491 17.1894 21.6997 16.9802C22.1558 16.771 22.6815 16.6663 23.277 16.6663C23.9476 16.6663 24.5189 16.8005 24.991 17.0687C25.4631 17.3369 25.8467 17.6964 26.1418 18.147C26.4422 18.5977 26.6622 19.1046 26.8016 19.6679C26.9411 20.2312 27.0109 20.8106 27.0109 21.4061V21.9453C27.0109 22.5515 26.9706 23.1684 26.8902 23.7961C26.8151 24.4184 26.6675 25.0139 26.4476 25.5826C26.233 26.1513 25.9191 26.6609 25.5061 27.1116C25.093 27.5568 24.5538 27.9109 23.8886 28.1738C23.2287 28.4313 22.4133 28.56 21.4422 28.56H21.2893V27.2966ZM29.4699 27.7553C29.4699 27.5032 29.5476 27.2913 29.7032 27.1196C29.8642 26.9426 30.0949 26.854 30.3953 26.854C30.6957 26.854 30.9237 26.9426 31.0793 27.1196C31.2402 27.2913 31.3207 27.5032 31.3207 27.7553C31.3207 28.0021 31.2402 28.2113 31.0793 28.383C30.9237 28.5547 30.6957 28.6405 30.3953 28.6405C30.0949 28.6405 29.8642 28.5547 29.7032 28.383C29.5476 28.2113 29.4699 28.0021 29.4699 27.7553ZM29.4779 20.6497C29.4779 20.3975 29.5557 20.1856 29.7113 20.014C29.8722 19.8369 30.1029 19.7484 30.4033 19.7484C30.7038 19.7484 30.9318 19.8369 31.0873 20.014C31.2483 20.1856 31.3288 20.3975 31.3288 20.6497C31.3288 20.8965 31.2483 21.1057 31.0873 21.2774C30.9318 21.449 30.7038 21.5349 30.4033 21.5349C30.1029 21.5349 29.8722 21.449 29.7113 21.2774C29.5557 21.1057 29.4779 20.8965 29.4779 20.6497ZM35.8317 21.9533H36.8939C37.4143 21.9533 37.8435 21.8675 38.1815 21.6958C38.5248 21.5188 38.7797 21.28 38.946 20.9796C39.1176 20.6738 39.2035 20.3305 39.2035 19.9496C39.2035 19.4989 39.1284 19.1207 38.9782 18.8149C38.8279 18.5091 38.6026 18.2785 38.3022 18.1229C38.0018 17.9673 37.6209 17.8895 37.1595 17.8895C36.741 17.8895 36.3709 17.9727 36.049 18.139C35.7325 18.2999 35.483 18.5306 35.3006 18.831C35.1236 19.1315 35.035 19.4855 35.035 19.8932H33.5463C33.5463 19.2978 33.6965 18.7559 33.997 18.2677C34.2974 17.7795 34.7185 17.3906 35.2604 17.1009C35.8076 16.8112 36.4406 16.6663 37.1595 16.6663C37.8676 16.6663 38.4873 16.7924 39.0184 17.0446C39.5495 17.2913 39.9626 17.6615 40.2577 18.1551C40.5527 18.6433 40.7002 19.2522 40.7002 19.9818C40.7002 20.2768 40.6305 20.5934 40.491 20.9313C40.3569 21.2639 40.145 21.5751 39.8553 21.8648C39.571 22.1545 39.2008 22.3932 38.7448 22.581C38.2888 22.7634 37.7416 22.8546 37.1032 22.8546H35.8317V21.9533ZM35.8317 23.1765V22.2833H37.1032C37.8489 22.2833 38.4658 22.3718 38.954 22.5488C39.4422 22.7258 39.8258 22.9619 40.1048 23.257C40.3891 23.552 40.5876 23.8766 40.7002 24.2307C40.8183 24.5794 40.8773 24.9281 40.8773 25.2768C40.8773 25.824 40.7834 26.3095 40.5956 26.7333C40.4132 27.1572 40.153 27.5166 39.8151 27.8117C39.4824 28.1067 39.0908 28.3294 38.6402 28.4796C38.1895 28.6298 37.6987 28.7049 37.1675 28.7049C36.6579 28.7049 36.1777 28.6325 35.7271 28.4876C35.2818 28.3428 34.8875 28.1335 34.5442 27.8599C34.2008 27.581 33.9326 27.2403 33.7395 26.8379C33.5463 26.4302 33.4498 25.9662 33.4498 25.4458H34.9385C34.9385 25.8535 35.027 26.2103 35.204 26.5161C35.3864 26.8219 35.6439 27.0606 35.9766 27.2323C36.3145 27.3986 36.7115 27.4817 37.1675 27.4817C37.6235 27.4817 38.0152 27.4039 38.3424 27.2484C38.675 27.0874 38.9299 26.846 39.1069 26.5241C39.2893 26.2022 39.3805 25.7972 39.3805 25.309C39.3805 24.8208 39.2786 24.4211 39.0747 24.11C38.8709 23.7934 38.5812 23.5601 38.2056 23.4099C37.8355 23.2543 37.3982 23.1765 36.8939 23.1765H35.8317ZM50.5787 21.7521V23.5386C50.5787 24.4989 50.4929 25.309 50.3212 25.9689C50.1495 26.6287 49.9027 27.1598 49.5809 27.5622C49.259 27.9645 48.87 28.2569 48.414 28.4393C47.9634 28.6164 47.4537 28.7049 46.8851 28.7049C46.4344 28.7049 46.0187 28.6486 45.6378 28.5359C45.2569 28.4232 44.9135 28.2435 44.6077 27.9967C44.3073 27.7446 44.0498 27.4173 43.8352 27.015C43.6206 26.6126 43.457 26.1244 43.3443 25.5504C43.2317 24.9764 43.1753 24.3058 43.1753 23.5386V21.7521C43.1753 20.7918 43.2612 19.9871 43.4328 19.338C43.6099 18.6889 43.8593 18.1685 44.1812 17.7768C44.5031 17.3799 44.8894 17.0955 45.34 16.9238C45.796 16.7522 46.3057 16.6663 46.869 16.6663C47.325 16.6663 47.7434 16.7227 48.1243 16.8353C48.5106 16.9426 48.8539 17.117 49.1544 17.3584C49.4548 17.5944 49.7096 17.911 49.9188 18.308C50.1334 18.6996 50.2971 19.1797 50.4097 19.7484C50.5224 20.3171 50.5787 20.985 50.5787 21.7521ZM49.0819 23.78V21.5027C49.0819 20.9769 49.0497 20.5156 48.9854 20.1186C48.9264 19.7162 48.8378 19.3729 48.7198 19.0885C48.6018 18.8042 48.4516 18.5735 48.2692 18.3965C48.0921 18.2194 47.8856 18.0907 47.6495 18.0102C47.4189 17.9244 47.1587 17.8815 46.869 17.8815C46.5149 17.8815 46.2011 17.9485 45.9274 18.0826C45.6538 18.2114 45.4232 18.4179 45.2354 18.7023C45.053 18.9866 44.9135 19.3595 44.8169 19.8208C44.7204 20.2822 44.6721 20.8428 44.6721 21.5027V23.78C44.6721 24.3058 44.7016 24.7698 44.7606 25.1722C44.825 25.5745 44.9189 25.9233 45.0423 26.2183C45.1657 26.508 45.3159 26.7467 45.4929 26.9345C45.6699 27.1223 45.8738 27.2618 46.1045 27.353C46.3405 27.4388 46.6007 27.4817 46.8851 27.4817C47.2499 27.4817 47.5691 27.412 47.8427 27.2725C48.1163 27.133 48.3443 26.9157 48.5267 26.6207C48.7144 26.3202 48.8539 25.9367 48.9451 25.4699C49.0363 24.9978 49.0819 24.4345 49.0819 23.78Z" fill="#171D1B"/>
<g clip-path="url(#clip1_75_560)">
<path d="M412.8 21.189L421.432 29.8217L430.065 21.189C425.293 16.4175 417.571 16.4175 412.8 21.189Z" fill="#171D1B"/>
</g>
<path d="M445.76 15.6953L430.065 31.3911H445.76V15.6953Z" fill="#171D1B"/>
<path d="M458.624 15.2061H454.872V16.8737H452.995C452.305 16.8737 451.745 17.4337 451.745 18.1245V30.6321C451.745 31.3229 452.305 31.8828 452.995 31.8828H460.5C461.191 31.8828 461.751 31.3229 461.751 30.6321V18.1245C461.751 17.4337 461.191 16.8737 460.5 16.8737H458.624V15.2061Z" fill="#171D1B"/>
</g>
<defs>
<filter id="filter0_f_75_560" x="-664.88" y="39.916" width="1697.76" height="1897.99" filterUnits="userSpaceOnUse" color-interpolation-filters="sRGB">
<feFlood flood-opacity="0" result="BackgroundImageFix"/>
<feBlend mode="normal" in="SourceGraphic" in2="BackgroundImageFix" result="shape"/>
<feGaussianBlur stdDeviation="200" result="effect1_foregroundBlur_75_560"/>
</filter>
<filter id="filter1_f_75_560" x="-487.239" y="-357.29" width="1308.75" height="1185.49" filterUnits="userSpaceOnUse" color-interpolation-filters="sRGB">
<feFlood flood-opacity="0" result="BackgroundImageFix"/>
<feBlend mode="normal" in="SourceGraphic" in2="BackgroundImageFix" result="shape"/>
<feGaussianBlur stdDeviation="200" result="effect1_foregroundBlur_75_560"/>
</filter>
<filter id="filter2_f_75_560" x="-442.974" y="-528.053" width="1368.96" height="1089.08" filterUnits="userSpaceOnUse" color-interpolation-filters="sRGB">
<feFlood flood-opacity="0" result="BackgroundImageFix"/>
<feBlend mode="normal" in="SourceGraphic" in2="BackgroundImageFix" result="shape"/>
<feGaussianBlur stdDeviation="200" result="effect1_foregroundBlur_75_560"/>
</filter>
<filter id="filter3_f_75_560" x="-145.5" y="-273.576" width="1215.44" height="1289.8" filterUnits="userSpaceOnUse" color-interpolation-filters="sRGB">
<feFlood flood-opacity="0" result="BackgroundImageFix"/>
<feBlend mode="normal" in="SourceGraphic" in2="BackgroundImageFix" result="shape"/>
<feGaussianBlur stdDeviation="200" result="effect1_foregroundBlur_75_560"/>
</filter>
<filter id="filter4_f_75_560" x="-312.801" y="59.4238" width="1115.43" height="894.994" filterUnits="userSpaceOnUse" color-interpolation-filters="sRGB">
<feFlood flood-opacity="0" result="BackgroundImageFix"/>
<feBlend mode="normal" in="SourceGraphic" in2="BackgroundImageFix" result="shape"/>
<feGaussianBlur stdDeviation="175" result="effect1_foregroundBlur_75_560"/>
</filter>
<clipPath id="clip0_75_560">
<rect width="485.234" height="1080" rx="40" fill="white"/>
</clipPath>
<clipPath id="clip1_75_560">
<rect width="18.835" height="18.835" fill="white" transform="translate(412.015 14.126)"/>
</clipPath>
</defs>
</svg>
